<svg width="70" height="70" viewBox="0 0 70 70" fill="none" xmlns="http://www.w3.org/2000/svg">
<path fill-rule="evenodd" clip-rule="evenodd" d="M50.6146 12.6978L12.6979 50.6145L10.6355 48.5521L48.5522 10.6355L50.6146 12.6978Z" fill="#0A435B"/>
<path fill-rule="evenodd" clip-rule="evenodd" d="M40.7645 6.22286C40.2549 5.7132 39.3991 5.7132 38.8894 6.22286L6.22273 38.8895C5.71308 39.3992 5.71308 40.255 6.22273 40.7646L29.2352 63.7771C29.7449 64.2868 30.6007 64.2868 31.1103 63.7771L63.777 31.1105C64.2774 30.61 64.2985 29.7772 63.769 29.2273L40.7645 6.22286ZM36.827 4.16046C38.4757 2.51178 41.1782 2.51178 42.8269 4.16046L65.8531 27.1867C67.4761 28.8536 67.4955 31.5167 65.8394 33.1729L33.1727 65.8395C31.5241 67.4882 28.8215 67.4882 27.1728 65.8395L4.16034 42.827C2.51166 41.1783 2.51166 38.4758 4.16034 36.8271L36.827 4.16046Z" fill="#0A435B"/>
</svg>
