<svg width="38" height="38" viewBox="0 0 38 38" fill="none" xmlns="http://www.w3.org/2000/svg">
<path d="M32.3778 32.3784H26.7474V23.5608C26.7474 21.4581 26.7099 18.7513 23.819 18.7513C20.8865 18.7513 20.4378 21.0423 20.4378 23.4077V32.3778H14.8074V14.2452H20.2126V16.7232H20.2883C21.3904 14.8387 23.4397 13.7131 25.6213 13.7941C31.328 13.7941 32.3801 17.5478 32.3801 22.4311L32.3778 32.3784ZM8.45441 11.7665C6.64988 11.7669 5.18675 10.3042 5.18643 8.49966C5.18611 6.69509 6.64871 5.23193 8.45324 5.23161C10.2578 5.23128 11.7209 6.69392 11.7212 8.49849C11.7214 9.36508 11.3773 10.1962 10.7646 10.8091C10.152 11.422 9.32098 11.7664 8.45441 11.7665ZM11.2696 32.3784H5.63334V14.2452H11.2696V32.3784ZM35.1848 0.00283349H2.80406C1.27368 -0.0144372 0.0186775 1.21146 0 2.74185V35.2576C0.018038 36.7887 1.27294 38.0158 2.80406 37.9998H35.1848C36.7189 38.0188 37.9788 36.7918 38 35.2576V2.73951C37.9781 1.20609 36.7182 -0.0197365 35.1848 0.000240747" fill="#0A66C2"/>
</svg>
