<svg width="70" height="70" viewBox="0 0 70 70" fill="none" xmlns="http://www.w3.org/2000/svg">
<path fill-rule="evenodd" clip-rule="evenodd" d="M34.9999 8.74998C20.5024 8.74998 8.74992 20.5025 8.74992 35C8.74992 49.4975 20.5024 61.25 34.9999 61.25C49.4974 61.25 61.2499 49.4975 61.2499 35C61.2499 20.5025 49.4974 8.74998 34.9999 8.74998ZM5.83325 35C5.83325 18.8917 18.8916 5.83331 34.9999 5.83331C51.1082 5.83331 64.1666 18.8917 64.1666 35C64.1666 51.1083 51.1082 64.1666 34.9999 64.1666C18.8916 64.1666 5.83325 51.1083 5.83325 35Z" fill="#0E6184"/>
<path d="M41.2417 44.1584C40.0167 45.2667 38.2376 45.8792 35.8751 45.9959V49.5834H34.3292V46.0542C32.8126 45.9667 31.3834 45.675 30.0709 45.1792C28.7292 44.6834 27.6792 44.0125 26.9209 43.2542L27.8251 41.475C28.5542 42.175 29.4876 42.7584 30.6542 43.2542C31.8209 43.7209 33.0459 44.0125 34.3292 44.1V35.9334C32.9001 35.5834 31.7042 35.2042 30.7709 34.7959C29.8084 34.3875 29.0209 33.8042 28.4084 33.0167C27.7667 32.2292 27.4459 31.1792 27.4459 29.925C27.4459 28.3209 28.0292 26.9792 29.1959 25.9C30.3626 24.8209 32.0834 24.1792 34.3584 24.0042V20.4167H35.9042V23.9459C37.0709 23.975 38.2376 24.1792 39.3459 24.5292C40.4542 24.8792 41.4167 25.3167 42.2042 25.8709L41.4167 27.7084C40.5709 27.1834 39.6667 26.7459 38.7042 26.425C37.7417 26.1042 36.8084 25.9292 35.8751 25.9V34.125C37.3917 34.5042 38.6459 34.8834 39.6376 35.2625C40.6001 35.6417 41.4167 36.225 42.0876 37.0125C42.7584 37.8 43.0792 38.8209 43.0792 40.1042C43.0792 41.7084 42.4667 43.05 41.2417 44.1584ZM30.9167 32.2875C31.7042 32.8417 32.8417 33.3084 34.3292 33.7167V25.9584C32.8126 26.1042 31.6459 26.5125 30.8584 27.2125C30.0709 27.9417 29.6917 28.7875 29.6917 29.8375C29.7209 30.9167 30.1001 31.7334 30.9167 32.2875ZM39.5792 42.8459C40.3959 42.175 40.8334 41.3 40.8334 40.25C40.8334 39.1417 40.3959 38.2959 39.5501 37.7417C38.7042 37.1875 37.4792 36.7209 35.8751 36.3125V44.0709C37.5084 43.925 38.7334 43.5167 39.5792 42.8459Z" fill="#0A435B"/>
</svg>
