<svg width="38" height="44" viewBox="0 0 38 44" fill="none" xmlns="http://www.w3.org/2000/svg">
<path d="M28.1624 16.01C30.935 17.9909 34.3316 19.1564 38 19.1564V12.1009C37.3057 12.101 36.6133 12.0287 35.934 11.8848V17.4386C32.2659 17.4386 28.8698 16.273 26.0965 14.2922V28.6906C26.0965 35.8934 20.2545 41.7319 13.0485 41.7319C10.3597 41.7319 7.86065 40.9195 5.78467 39.5261C8.15406 41.9476 11.4584 43.4497 15.114 43.4497C22.3204 43.4497 28.1627 37.6111 28.1627 30.408V16.01H28.1624ZM30.711 8.89179C29.2941 7.34457 28.3637 5.34507 28.1624 3.13455V2.22705H26.2046C26.6974 5.03663 28.3783 7.43697 30.711 8.89179ZM10.3425 33.9989C9.55082 32.9615 9.123 31.6923 9.12492 30.3874C9.12492 27.0931 11.797 24.4221 15.0936 24.4221C15.708 24.4219 16.3187 24.5159 16.9042 24.7016V17.4884C16.22 17.3946 15.5294 17.3549 14.8391 17.3694V22.9839C14.2532 22.7982 13.6422 22.7039 13.0277 22.7045C9.73105 22.7045 7.05911 25.3752 7.05911 28.67C7.05911 30.9996 8.39471 33.0164 10.3425 33.9989Z" fill="#EE1D52"/>
<path d="M26.0965 14.2921C28.8699 16.2729 32.266 17.4384 35.9341 17.4384V11.8847C33.8866 11.4488 32.074 10.3793 30.7111 8.89179C28.3783 7.43682 26.6975 5.03648 26.2047 2.22705H21.0621V30.4077C21.0505 33.693 18.383 36.3532 15.0934 36.3532C13.1549 36.3532 11.4328 35.4296 10.3421 33.9989C8.39451 33.0164 7.05891 30.9994 7.05891 28.6701C7.05891 25.3757 9.73084 22.7046 13.0275 22.7046C13.6591 22.7046 14.2679 22.8029 14.8389 22.984V17.3696C7.7595 17.5158 2.06592 23.2973 2.06592 30.4079C2.06592 33.9574 3.48375 37.1752 5.78491 39.5263C7.86089 40.9195 10.36 41.7321 13.0487 41.7321C20.2549 41.7321 26.0967 35.8932 26.0967 28.6906V14.2921H26.0965Z" fill="#010101"/>
<path d="M35.934 11.885V10.3833C34.0876 10.3861 32.2775 9.86928 30.711 8.89193C32.0977 10.4094 33.9238 11.4557 35.934 11.885ZM26.2046 2.22734C26.1576 1.95884 26.1215 1.68857 26.0964 1.41726V0.509766H18.9959V28.6907C18.9846 31.9756 16.3172 34.6357 13.0274 34.6357C12.0615 34.6357 11.1496 34.4066 10.342 33.9994C11.4327 35.4299 13.1548 36.3533 15.0933 36.3533C18.3826 36.3533 21.0505 33.6935 21.062 30.4082V2.22734H26.2046ZM14.8391 17.3699V15.7712C14.2458 15.6902 13.6476 15.6495 13.0487 15.6498C5.84198 15.6498 0 21.4885 0 28.6907C0 33.2061 2.296 37.1855 5.78495 39.5263C3.48379 37.1753 2.06596 33.9574 2.06596 30.408C2.06596 23.2976 7.75939 17.5161 14.8391 17.3699Z" fill="#69C9D0"/>
</svg>
